# xmcd CD database file
#
# Track frame offsets:
#	150
#	15701
#	30663
#	44082
#	58596
#	72150
#	86712
#	100545
#	114448
#	129074
#	140796
#	155539
#	170584
#	184868
#	197547
#	210029
#	225204
#	236671
#	250463
#	265546
#	278427
#	291031
#
# Disc length: 4068 seconds
#
# Revision: 1
# Processed by: cddbd v1.5.2PL0 Copyright (c) Steve Scherf et al.
# Submitted via: CDex 1.51
#
DISCID=260fe216
DTITLE=Woody Herman - [CD 04-10] - Boulevard Of Memories
DYEAR=1900
DGENRE=Jazz
TTITLE0=In The Blue Evening  [1947]
TTITLE1=Am I Blue ¿  [1947]
TTITLE2=Blue Moon  [1947]
TTITLE3=Between The Devil And The Deep Blue Sea  [1947]
TTITLE4=Blues In The Night  [1947]
TTITLE5=Under A Blanket Of Blue  [1947]
TTITLE6=I Gotta Right To Sing The Blues [1947]
TTITLE7=Blue Prelude  [1947]
TTITLE8=Baby Come Home  [1947]
TTITLE9=Bloop Beep  [1947]
TTITLE10=Boulevard Of Memories  [1947]
TTITLE11=Civilization  [1947]
TTITLE12=A Tune For Huming  [1947]
TTITLE13=Baby, Have You Got A Little Love To Square  [1947]
TTITLE14=If Anybody Can Steal My Baby  [1947]
TTITLE15=I Told Ya I Love Ya, Now Get Out  [1947]
TTITLE16=Sabre Dance  [1947]
TTITLE17=Cherokee Canyon  [1947]
TTITLE18=I've Got News For You  [1947]
TTITLE19=Keen And Peachy  [1947]
TTITLE20=The Goof And I  [1947]
TTITLE21=Lazy Lullaby  [1947]
EXTD=
EXTT0=
EXTT1=
EXTT2=
EXTT3=
EXTT4=
EXTT5=
EXTT6=
EXTT7=
EXTT8=
EXTT9=
EXTT10=
EXTT11=
EXTT12=
EXTT13=
EXTT14=
EXTT15=
EXTT16=
EXTT17=
EXTT18=
EXTT19=
EXTT20=
EXTT21=
PLAYORDER=
